<?xml version="1.0" standalone="no"?>
<!DOCTYPE svg PUBLIC "-//W3C//DTD SVG 20010904//EN"
 "http://www.w3.org/TR/2001/REC-SVG-20010904/DTD/svg10.dtd">
<svg version="1.0" xmlns="http://www.w3.org/2000/svg"
 width="700.000000pt" height="700.000000pt" viewBox="0 0 700.000000 700.000000"
 preserveAspectRatio="xMidYMid meet">
<metadata>
Created by potrace 1.14, written by Peter Selinger 2001-2017
</metadata>
<g transform="translate(0.000000,700.000000) scale(0.100000,-0.100000)"
fill="#000000" stroke="none">
<path d="M1457 6989 c-766 -89 -1364 -689 -1446 -1451 -15 -135 -15 -3941 0
-4076 71 -660 534 -1212 1171 -1396 225 -65 62 -60 2248 -64 1391 -2 2018 0
2095 8 195 19 371 69 550 155 510 246 849 728 915 1300 14 124 14 3946 0 4070
-40 345 -173 649 -399 909 -262 302 -648 502 -1053 545 -115 13 -3974 13
-4081 0z m2043 -2209 c117 -24 249 -86 346 -164 109 -87 221 -235 280 -371 16
-36 32 -65 36 -65 10 0 17 29 79 327 l54 263 237 0 c185 0 236 -3 233 -12 -2
-7 -66 -292 -141 -633 l-137 -619 153 -621 c84 -341 155 -626 158 -632 3 -10
-48 -13 -235 -13 l-240 0 -68 293 c-37 160 -70 295 -74 299 -4 4 -35 -47 -69
-115 -161 -319 -403 -496 -719 -526 -490 -46 -901 220 -1088 704 -144 374
-140 874 11 1226 125 292 352 521 612 616 173 64 391 80 572 43z"/>
<path d="M3270 4309 c-70 -12 -181 -67 -242 -119 -62 -54 -139 -170 -176 -267
-110 -286 -91 -683 45 -945 41 -78 133 -183 200 -227 66 -44 161 -71 247 -71
135 0 237 43 346 146 133 126 247 338 314 585 24 89 25 97 11 155 -76 326
-217 572 -389 681 -89 57 -237 83 -356 62z"/>
</g>
</svg>
