<?xml version="1.0" encoding="UTF-8"?><svg id="Layer_2" xmlns="http://www.w3.org/2000/svg" viewBox="0 0 1000 1000"><defs><style>.cls-1{fill:#111;}.cls-2{fill:#adadad;}</style></defs><g id="Layer_1-2"><rect class="cls-1" width="1000" height="1000" rx="234.25" ry="234.25"/><path class="cls-2" d="M468.02,688.35c-30.37-.32-57.16-8.5-80.37-24.55-23.21-16.05-41.35-38.24-54.41-66.56-13.06-28.32-19.59-60.9-19.59-97.72s6.85-68.96,20.54-96.89c13.69-27.93,32.34-49.76,55.94-65.5,23.6-15.73,50.28-23.6,80.02-23.6,20.45,0,38.71,3.74,54.76,11.21,16.05,7.48,29.82,17.94,41.31,31.39,11.48,13.45,20.77,29.15,27.85,47.09h27.38l19.59,95.36,45.32,182.22h-68.92l-42.49-182.22c-2.36-11.8-5.82-24.35-10.39-37.65-4.57-13.29-10.47-25.8-17.7-37.53-7.24-11.72-16.25-21.28-27.03-28.68-10.78-7.39-23.64-11.09-38.59-11.09-17.15,0-31.98,4.92-44.49,14.75-12.51,9.84-22.19,23.48-29.03,40.95s-10.27,37.45-10.27,59.95,3.34,42.68,10.03,60.54c6.69,17.86,16.09,31.86,28.21,42.01,12.12,10.15,26.12,15.22,42.01,15.22,14.32,0,26.99-3.81,38-11.45,11.01-7.63,20.45-17.47,28.32-29.5,7.87-12.04,14.36-24.78,19.47-38.24,5.11-13.45,8.93-25.92,11.45-37.41l38.47-182.22h68.21l-40.6,182.22-19.59,94.89h-25.73c-6.93,17.94-16.17,33.95-27.73,48.03-11.57,14.08-25.61,25.14-42.13,33.16-16.52,8.03-35.8,11.96-57.83,11.8Z"/></g></svg>